Patient4_TMGait_0pt4_03_left_34_EMG.mot
version=1
nRows=36
nColumns=33
inDegrees=no
endheader
time	1LAddLong	2LGlutMax	3LGlutMed	4LIliopsoas	5LSemiMemb	6LBicFemLong	7LRecFem	8LVastMed	9LVastLat	10LGasMed	11LTibAnt	12lTibPost	13LPeroneusLong	14LSol	15LExtDigLong	16LFlexDigLong	17RAddLong	18RGlutMax	19RGlutMed	20RIliopsoas	21RSemiMemb	22RBicFemLong	23RRecFem	24RVastMed	25RVastLat	26RGasMed	27RTibAnt	28RTibPost	29RPeroneusLong	30RSol	31RExtDigLong	32RFlexDigLong
46.37	0.007019	0.031281	-0.018158	-0.003662	-0.002899	-0.029144	-0.007782	0.007629	0.14618	-0.007019	0.052338	-0.00061	0.009918	-0.049133	0.43335	0.005035	0.006409	0.043182	0.24063	-0.17914	0.010071	0.008392	-0.019226	-0.041199	-0.014801	0.00885	0.001221	0.027924	1.364	-0.13962	-0.003052	-0.000153
46.371	0.01297	-0.007172	-0.02243	-0.004272	0.000153	-0.034943	0.020752	-0.001984	0.13763	0.007629	0.003052	0.001984	-0.035706	-0.026855	0.007629	0.000458	0.000458	0.057678	0.51804	-0.088654	0.011902	0.017395	-0.016937	-0.062866	0.01297	0.00351	0.033417	0.001068	-0.015564	-0.24216	-0.002441	-0.009766
46.372	0.013428	-0.002594	-0.027618	0.000916	-0.016785	0.007172	0.006561	0.005188	0.13931	0.031281	-0.058136	0.002136	0.059509	-0.082855	0.005035	-0.009613	0.01358	0.064392	0.28458	-0.001221	-0.00061	0.000153	0.007324	-0.063629	-0.000153	-0.071564	-0.11032	-0.04303	1.145	0.011292	-0.00061	-0.001831
46.373	0.014648	0.000153	-0.027924	-0.007935	-0.007935	0.001831	0.004578	0.003815	0.13367	0.0383	-0.047455	0.009918	0.066833	-0.061035	-0.07782	-0.019531	0.005035	0.072327	0.44388	0.070953	0.007019	-0.014801	0.005646	-0.062103	-0.001678	-0.010834	-0.16632	-0.031891	1.4311	-0.048981	-0.00473	-0.001831
46.374	0.023804	0.031586	-0.029449	-0.007019	-0.004272	0.014191	-0.015717	-0.000916	0.14053	0.026093	-0.007935	0.013123	0.054169	-0.043793	0.023804	-0.015869	0.009613	0.14542	0.62424	0.11078	-0.004272	-0.007935	0.000305	-0.099182	-0.007324	0.12436	-0.1442	-0.052643	0.44769	0.14038	-0.004425	-0.006256
46.375	0.012207	0.016937	-0.019836	0.006714	-0.011902	0.02243	-0.012817	0.005341	0.13428	0.023499	-0.016785	0.011139	0.043945	-0.048676	0.076599	-0.008545	0.010071	0.16876	0.6221	0.095978	-0.009155	0.00946	-0.00412	-0.026855	-0.01358	0.083008	-0.15808	0.022888	-0.050201	0.25482	-0.002594	-0.011597
46.376	-0.065765	0.019836	-0.024414	0.006409	-0.038147	0.001984	0.000916	-0.010223	0.13672	0.014954	0.009155	0.012054	0.01709	-0.061493	0.065765	-0.012207	0.009308	0.1532	0.99991	0.12619	-0.021057	-0.010223	-0.042419	-0.06546	-0.023956	-0.005188	-0.11337	0.080261	-0.50018	-0.12878	-0.00473	-0.009308
46.377	0.01297	0.002899	-0.053558	0.002136	-0.015564	-0.013733	-0.010223	0.003662	0.12329	0.022278	0.011292	0.00885	0.026703	-0.07843	0.038452	-0.006866	0.010834	0.063171	0.80048	0.2095	-0.016479	-0.00824	-0.060883	-0.044098	0.011444	-0.049286	-0.031891	-0.014801	-1.1926	-0.48935	-0.004578	-0.010071
46.378	0.03067	0.018158	-0.049896	0.01297	-0.005341	-0.020294	0.00824	0.006866	0.11429	0.019226	0.024109	0.015259	0.015411	-0.073242	0.005188	-0.006714	0.015564	0.024109	0.4483	0.13565	-0.022888	-0.007477	-0.11688	-0.035553	0.027161	-0.035706	-0.0177	-0.063019	-0.063629	-0.71472	-0.00351	-0.014954
46.379	0.012207	0.002289	-0.05249	-0.001984	0.039978	-0.022125	-0.011139	0.002136	0.12192	0.015717	0.052795	0.020905	-0.00885	-0.057068	0.063934	-0.025177	0.010223	-0.005035	-0.16281	0.055389	-0.016022	-0.011597	-0.085144	-0.024414	0.028076	-0.027466	0.024414	-0.14297	0.87402	-0.34347	-0.002594	-0.020447
46.38	0.016327	0.023956	-0.045166	0.005646	0.013733	-0.01358	-0.000458	0.004425	0.11551	0.022583	0.074463	0.014496	-0.031738	-0.040436	0.28076	-0.012665	0.005188	0.00061	-0.51666	0.14236	-0.021973	-0.018158	-0.024872	-0.03952	0.023804	0.036774	-0.040741	-0.006104	0.97809	0.049744	-0.004578	-0.012054
46.381	0.021973	-0.015411	-0.059662	0.029449	0.005035	-0.016174	-0.00885	-0.003967	0.11551	0.024414	0.055542	0.014191	0.005493	-0.035095	0.34103	-0.014801	0.010681	-0.10071	-0.74814	0.091553	-0.015411	-0.0383	0.033722	-0.006866	0.008087	0.05661	-0.013733	0.06134	0.41321	0.50064	0.002136	0.001984
46.382	0.017395	-0.007019	-0.085602	0.004578	0.001678	-0.019226	-0.010834	0.004883	0.11566	0.002747	0.003662	0.020752	0.048523	-0.024719	-0.014343	-0.000763	0.018005	-0.1384	-0.50293	0.007477	-0.007019	-0.023193	0.02594	-0.017242	0.013123	0.029449	0.065002	0.037994	-0.33463	0.54016	-0.002747	0.003967
46.383	0.014954	-0.016174	-0.075836	0.002441	0.006714	-0.006256	-0.005035	0.003967	0.10956	0.016785	0.066833	0.016479	0.032501	0.02243	0.11719	-0.007935	0.012817	-0.17029	-0.31143	0.033264	-0.015106	-0.018005	0.055084	-0.00412	0.016937	0.022736	0.066223	0.03952	-0.57983	0.27802	-0.000153	0.000458
46.384	0.015106	0.006866	-0.050507	0.005188	0.012512	-0.018005	0.000153	0.000305	0.10315	0.027618	0.15961	0.017853	0.005188	-0.001526	0.14191	-0.014496	0.018158	-0.1619	-0.035858	-0.011139	-0.019531	-0.016022	0.055389	-0.022583	0.014648	0.002747	-0.037384	0.014191	-0.25009	-0.12314	-0.006256	-0.002747
46.385	0.018005	-0.032196	0.007172	-0.005646	0.002594	-0.03006	0.007172	0.000763	0.11734	0.027924	0.085144	0.027466	-0.000916	0.023041	0.1767	-0.016174	0.021515	-0.14069	-0.43579	-0.069122	-0.040436	-0.011597	0.080719	-0.025024	0.027313	-0.019989	0.002289	0.011444	-0.93368	-0.32242	-0.003357	-0.002747
46.386	0.009308	-0.042114	0.025024	0.007324	0.000305	-0.023346	0.024719	0.000153	0.10437	-0.005646	-0.20294	0.026398	0.049286	-0.001678	-0.16617	0.00351	-0.000458	-0.15595	-0.005341	-0.098419	-0.00824	0.027618	0.030975	-0.036926	0.11353	-0.010681	0.062408	-0.003662	-0.63583	0.29022	-0.002441	-0.005798
46.387	0.006714	-0.065155	0.011292	0.007935	-0.007477	-0.023499	0	0.003662	0.097961	-0.017853	-0.16846	0.024414	0.076447	0.010986	0.36438	-0.010986	0.001984	-0.12466	0.23865	-0.03952	0.020447	0.03006	0.016479	-0.04425	0.10925	-0.005493	0.002441	-0.007629	0.90805	0.3772	0.003662	-0.003357
46.388	0.007324	-0.076599	-0.00351	0.017395	0.001221	-0.033875	-0.010986	0.001831	0.082092	-0.034332	-0.088959	0.021515	0.028381	0.000305	-0.23575	-0.011292	0.020294	-0.25055	0.067596	-0.04776	-0.028381	0.013123	0.03891	-0.058136	-0.000153	0.000763	0.012817	0.00412	0.58731	0.16129	-0.002136	-0.00946
46.389	0.012207	-0.078888	0.007629	0.014038	0.010681	-0.00351	-0.008545	0.010681	0.074005	-0.020905	-0.037079	0.023041	-0.000458	0.014496	-0.50964	-0.014648	0.028381	-0.24323	-0.16037	0.007782	-0.034943	0.024109	-0.053406	-0.07843	-0.040283	0.00351	-0.053101	-0.007019	-0.54428	0.13489	-0.002441	-0.014038
46.39	0.009766	-0.064392	-0.011139	0.00473	0.027771	0.016174	-0.015106	0.003967	0.072479	-0.007172	-0.010223	0.021973	0.01709	-0.01358	-0.32928	-0.00885	0.022278	-0.21423	0.20355	0.001984	0.025787	-0.022583	-0.019379	-0.010681	-0.038605	-0.001526	-0.054321	-0.010223	0.039368	0.075531	-0.003662	-0.010223
46.391	0.018921	-0.070038	-0.038147	0	-0.002136	-0.016327	0.002747	0.003204	0.055847	0.011749	-0.073242	0.019836	0.039673	-0.096741	-0.19333	-0.011597	0.013885	-0.15152	0.5278	-0.12543	0.065002	-0.072327	0.002747	-0.029297	-0.037079	-0.003204	-0.016327	-0.011749	0.012054	0.061646	-0.002136	-0.004272
46.392	0.011749	-0.054016	-0.076294	0.005493	-0.038147	-0.013733	-0.01236	0.002136	0.045776	-0.004272	0.003357	0.016937	0.040131	-0.12451	-0.1828	-0.01297	0.000458	-0.19043	0.61005	-0.10544	0.036774	-0.048981	0.087738	-0.042725	-0.096741	-0.00412	-0.009003	-0.009613	-0.049896	0.098114	-0.002747	-0.012207
46.393	-0.010529	-0.045929	-0.083923	0.002441	-0.050201	0.023499	0.032196	0.014954	0.043335	0.002899	0.016327	0.018158	0.015411	-0.17929	-0.15854	-0.009308	-0.022736	-0.29221	0.51376	-0.10681	0.060577	-0.046387	0.22415	-0.10208	-0.093842	0.009308	-0.026245	-0.016174	0.12955	0.12482	-0.003357	-0.012207
46.394	-0.011749	-0.059814	-0.076141	-0.004578	-0.082703	0.036163	0.020142	0.00824	0.050507	0.010223	0.038452	0.015564	0.002441	-0.1294	-0.032501	-0.013733	-0.001221	-0.32471	0.14236	-0.12558	0.005951	0.084991	0.070648	-0.070801	-0.12054	0.01236	0.005646	-0.006714	0.20905	0.05188	-0.001984	-0.010071
46.395	-0.007935	-0.07782	-0.028992	-0.003052	-0.064087	0.02182	-0.00946	0.005341	0.035858	0.009766	0.034027	0.020447	0.009613	-0.088196	0.03479	0.001831	-0.011292	-0.28046	-0.031128	-0.1001	-0.092163	0.19852	-0.26337	-0.032654	-0.055847	0.011902	0.061188	-0.006409	-0.30975	-0.048676	-0.000153	-0.005188
46.396	0.005493	-0.07431	-0.014343	-0.003357	0.000305	-0.06958	-0.012665	0.002747	0.046844	-0.005493	0.0354	0.019531	0.02182	-0.09552	0.090332	0.003357	-0.015259	-0.27695	-0.16632	-0.019379	-0.056152	0.1268	-0.3305	0.027618	0.055084	-0.001526	0.05722	-0.012207	-0.32959	0.001984	-0.004272	-0.007019
46.397	0.023499	-0.079346	-0.027618	-0.011292	0.024719	-0.14679	-0.014496	-0.002747	0.054016	-0.001984	0.020905	0.020752	0.028992	-0.088348	0.1004	0.001221	-0.007629	-0.22964	-0.21454	0.050964	0.085602	-0.015564	-0.14481	0.032349	0.052643	0.006561	0.070801	-0.013275	-0.10773	0.055542	-0.001678	-0.006409
46.398	0.029144	-0.078888	0.014954	0.003815	0.039215	-0.12756	-0.019073	-0.001068	0.045929	0.008545	-0.030365	0.018463	0.007477	-0.08194	0.093994	0.01358	0.010986	-0.24429	0.37033	0.1741	0.004425	-0.051727	-0.001221	-0.02243	0.038757	-0.007019	0.022583	-0.015106	0.11597	0.033112	0.001984	-0.001373
46.399	0.024109	-0.10468	0.03418	0.004578	0.055542	-0.069885	-0.008392	-0.000763	0.03952	-0.031891	-0.042267	0.007477	0.031586	-0.092621	0.033569	0.009918	-0.010376	-0.26627	0.16113	0.19608	-0.050201	-0.019684	-0.040588	-0.038605	0.02121	-0.014801	0.016785	-0.013428	0.10788	-0.001831	-0.002899	-0.001221
46.4	0.031738	-0.085907	0.030518	0.009613	0.064392	-0.035858	-0.008545	-0.002747	0.029907	-0.016174	-0.050507	0.011902	0.02533	-0.081024	0.029449	0.015869	-0.003815	-0.23453	0.054321	0.093689	0.03006	0.007782	-0.025177	-0.010834	0.032959	-0.026093	0.021362	0.001984	-0.037231	-0.054016	-0.00351	-0.00885
46.401	0.014496	-0.12451	-0.011292	0.021362	0.018921	-0.022278	-0.004425	0.005188	0.032501	-0.016022	-0.048828	-0.002136	0.002899	-0.090637	0.04425	0.017853	0.006256	-0.24475	0.41855	0.004425	0.061493	0.004272	-0.000458	-0.007324	0.017853	-0.015564	-0.000458	0.044861	-0.25955	-0.11002	-0.001221	-0.001373
46.402	0.016632	-0.097351	-0.055084	0.005035	-0.003052	-0.062561	0.006714	0.006561	0.043335	-0.019531	-0.037842	0.008392	-0.000305	-0.076904	0.027313	0.014191	0.008545	-0.1857	0.16785	-0.017548	-0.031586	0.001526	0.026245	-0.029907	-0.028076	0.011902	0.02533	-0.00351	-0.32257	-0.066376	-0.004425	-0.010223
46.403	0.00824	-0.070343	-0.05661	-0.005341	0.007477	-0.061951	-0.00946	0.003815	0.048523	-0.013123	-0.023956	0.008698	0.013733	-0.078583	0.054474	0.010376	-0.00473	-0.13473	-0.18204	0.001526	-0.12482	0.008698	0.051727	0.024414	-0.022278	0.022583	0.046997	-0.011444	-0.18555	-0.034027	-0.00061	-0.014648
46.404	0.014801	-0.081024	-0.016022	-0.009918	0.012054	-0.065155	0.004425	0	0.042877	-0.024567	-0.010529	0.005035	0.015259	-0.080414	0.02243	-0.017395	-0.010223	-0.16907	-0.4042	0.008545	-0.0177	-0.032959	0.10452	-0.011139	-0.005493	0.010071	0.032196	-0.011597	-0.077362	-0.030975	-0.001678	-0.018311
46.405	0.013733	-0.081482	-0.020905	-0.001068	0.004425	-0.059509	-0.002899	0.008698	0.053101	-0.039063	0.016785	0.006256	0.021973	-0.055084	0.021057	-0.014801	-0.005188	-0.20538	0.1976	-0.030518	0.088196	-0.050812	0.13214	-0.012054	-0.00824	-0.013428	0.012512	-0.00824	0.024872	-0.062714	-0.001831	-0.018005
